# Blender 3.6.7
# www.blender.org
mtllib legacy.mtl
o Larm.001
v 2.000000 -1.000000 -0.500000
v 2.000000 -4.000000 -0.500000
v 2.000000 -1.000000 0.500000
v 2.000000 -4.000000 0.500000
v 1.000000 -1.000000 -0.500000
v 1.000000 -4.000000 -0.500000
v 1.000000 -1.000000 0.500000
v 1.000000 -4.000000 0.500000
vn -0.0000 1.0000 -0.0000
vn -0.0000 -0.0000 1.0000
vn -1.0000 -0.0000 -0.0000
vn -0.0000 -1.0000 -0.0000
vn 1.0000 -0.0000 -0.0000
vn -0.0000 -0.0000 -1.0000
vt 0.750000 0.500000
vt 0.687500 0.500000
vt 0.687500 0.375000
vt 0.750000 0.375000
vt 0.750000 0.000000
vt 0.687500 0.000000
vt 0.625000 0.375000
vt 0.625000 0.000000
vt 0.812500 0.500000
vt 0.812500 0.375000
vt 0.812500 0.000000
vt 0.875000 0.000000
vt 0.875000 0.375000
s 0
usemtl Material.002
f 1/1/1 5/2/1 7/3/1 3/4/1
f 4/5/2 3/4/2 7/3/2 8/6/2
f 8/6/3 7/3/3 5/7/3 6/8/3
f 6/9/4 2/1/4 4/4/4 8/10/4
f 2/11/5 1/10/5 3/4/5 4/5/5
f 6/12/6 5/13/6 1/10/6 2/11/6
o Rarm.001
v -1.000000 -1.000000 -0.500000
v -1.000000 -4.000000 -0.500000
v -1.000000 -1.000000 0.500000
v -1.000000 -4.000000 0.500000
v -2.000000 -1.000000 -0.500000
v -2.000000 -4.000000 -0.500000
v -2.000000 -1.000000 0.500000
v -2.000000 -4.000000 0.500000
vn -0.0000 1.0000 -0.0000
vn -0.0000 -0.0000 1.0000
vn -1.0000 -0.0000 -0.0000
vn -0.0000 -1.0000 -0.0000
vn 1.0000 -0.0000 -0.0000
vn -0.0000 -0.0000 -1.0000
vt 0.750000 0.500000
vt 0.687500 0.500000
vt 0.687500 0.375000
vt 0.750000 0.375000
vt 0.750000 0.000000
vt 0.687500 0.000000
vt 0.625000 0.375000
vt 0.625000 0.000000
vt 0.812500 0.500000
vt 0.812500 0.375000
vt 0.812500 0.000000
vt 0.875000 0.000000
vt 0.875000 0.375000
s 0
usemtl Material.002
f 9/14/7 13/15/7 15/16/7 11/17/7
f 12/18/8 11/17/8 15/16/8 16/19/8
f 16/19/9 15/16/9 13/20/9 14/21/9
f 14/22/10 10/14/10 12/17/10 16/23/10
f 10/24/11 9/23/11 11/17/11 12/18/11
f 14/25/12 13/26/12 9/23/12 10/24/12
o head.004
v 1.000000 1.000000 -1.000000
v 1.000000 -1.000000 -1.000000
v 1.000000 1.000000 1.000000
v 1.000000 -1.000000 1.000000
v -1.000000 1.000000 -1.000000
v -1.000000 -1.000000 -1.000000
v -1.000000 1.000000 1.000000
v -1.000000 -1.000000 1.000000
vn -0.0000 1.0000 -0.0000
vn -0.0000 -0.0000 1.0000
vn -1.0000 -0.0000 -0.0000
vn -0.0000 -1.0000 -0.0000
vn 1.0000 -0.0000 -0.0000
vn -0.0000 -0.0000 -1.0000
vt 0.250000 1.000000
vt 0.125000 1.000000
vt 0.125000 0.750000
vt 0.250000 0.750000
vt 0.250000 0.500000
vt 0.125000 0.750000
vt 0.125000 0.500000
vt 0.000000 0.750000
vt 0.000000 0.500000
vt 0.375000 1.000000
vt 0.250000 1.000000
vt 0.375000 0.750000
vt 0.375000 0.500000
vt 0.500000 0.500000
vt 0.500000 0.750000
s 0
usemtl Material.002
f 17/27/13 21/28/13 23/29/13 19/30/13
f 20/31/14 19/30/14 23/32/14 24/33/14
f 24/33/15 23/32/15 21/34/15 22/35/15
f 22/36/16 18/37/16 20/30/16 24/38/16
f 18/39/17 17/38/17 19/30/17 20/31/17
f 22/40/18 21/41/18 17/38/18 18/39/18
o Lleg.004
v 1.000000 -4.000000 -0.500000
v 1.000000 -7.000000 -0.500000
v 1.000000 -4.000000 0.500000
v 1.000000 -7.000000 0.500000
v 0.000000 -4.000000 -0.500000
v 0.000000 -7.000000 -0.500000
v 0.000000 -4.000000 0.500000
v 0.000000 -7.000000 0.500000
vn -0.0000 1.0000 -0.0000
vn -0.0000 -0.0000 1.0000
vn -1.0000 -0.0000 -0.0000
vn -0.0000 -1.0000 -0.0000
vn 1.0000 -0.0000 -0.0000
vn -0.0000 -0.0000 -1.0000
vt 0.125000 0.500000
vt 0.062500 0.500000
vt 0.062500 0.375000
vt 0.125000 0.375000
vt 0.125000 0.000000
vt 0.062500 0.000000
vt 0.000000 0.375000
vt 0.000000 0.000000
vt 0.187500 0.500000
vt 0.187500 0.375000
vt 0.187500 0.000000
vt 0.250000 0.000000
vt 0.250000 0.375000
s 0
usemtl Material.002
f 25/42/19 29/43/19 31/44/19 27/45/19
f 28/46/20 27/45/20 31/44/20 32/47/20
f 32/47/21 31/44/21 29/48/21 30/49/21
f 30/50/22 26/42/22 28/45/22 32/51/22
f 26/52/23 25/51/23 27/45/23 28/46/23
f 30/53/24 29/54/24 25/51/24 26/52/24
o Rleg.004
v 0.000000 -4.000000 -0.500000
v 0.000000 -7.000000 -0.500000
v 0.000000 -4.000000 0.500000
v 0.000000 -7.000000 0.500000
v -1.000000 -4.000000 -0.500000
v -1.000000 -7.000000 -0.500000
v -1.000000 -4.000000 0.500000
v -1.000000 -7.000000 0.500000
vn -0.0000 1.0000 -0.0000
vn -0.0000 -0.0000 1.0000
vn -1.0000 -0.0000 -0.0000
vn -0.0000 -1.0000 -0.0000
vn 1.0000 -0.0000 -0.0000
vn -0.0000 -0.0000 -1.0000
vt 0.125000 0.500000
vt 0.062500 0.500000
vt 0.062500 0.375000
vt 0.125000 0.375000
vt 0.125000 0.000000
vt 0.062500 0.000000
vt 0.000000 0.375000
vt 0.000000 0.000000
vt 0.187500 0.500000
vt 0.187500 0.375000
vt 0.187500 0.000000
vt 0.250000 0.000000
vt 0.250000 0.375000
s 0
usemtl Material.002
f 33/55/25 37/56/25 39/57/25 35/58/25
f 36/59/26 35/58/26 39/57/26 40/60/26
f 40/60/27 39/57/27 37/61/27 38/62/27
f 38/63/28 34/55/28 36/58/28 40/64/28
f 34/65/29 33/64/29 35/58/29 36/59/29
f 38/66/30 37/67/30 33/64/30 34/65/30
o torso.004
v 1.000000 -1.000000 -0.500000
v 1.000000 -4.000000 -0.500000
v 1.000000 -1.000000 0.500000
v 1.000000 -4.000000 0.500000
v -1.000000 -1.000000 -0.500000
v -1.000000 -4.000000 -0.500000
v -1.000000 -1.000000 0.500000
v -1.000000 -4.000000 0.500000
vn -0.0000 1.0000 -0.0000
vn -0.0000 -0.0000 1.0000
vn -1.0000 -0.0000 -0.0000
vn -0.0000 -1.0000 -0.0000
vn 1.0000 -0.0000 -0.0000
vn -0.0000 -0.0000 -1.0000
vt 0.437468 0.499984
vt 0.312489 0.499984
vt 0.312489 0.375005
vt 0.437468 0.375005
vt 0.437511 -0.000059
vt 0.437511 0.374875
vt 0.312532 0.374875
vt 0.312532 -0.000059
vt 0.312516 0.000200
vt 0.312516 0.375135
vt 0.250027 0.375135
vt 0.250027 0.000200
vt 0.562554 0.499984
vt 0.437576 0.499984
vt 0.437576 0.375005
vt 0.562554 0.375005
vt 0.500016 0.000027
vt 0.500016 0.374962
vt 0.437527 0.374962
vt 0.437527 0.000027
vt 0.625011 0.000114
vt 0.625011 0.375049
vt 0.500033 0.375049
vt 0.500033 0.000114
s 0
usemtl Material.002
f 41/68/31 45/69/31 47/70/31 43/71/31
f 44/72/32 43/73/32 47/74/32 48/75/32
f 48/76/33 47/77/33 45/78/33 46/79/33
f 46/80/34 42/81/34 44/82/34 48/83/34
f 42/84/35 41/85/35 43/86/35 44/87/35
f 46/88/36 45/89/36 41/90/36 42/91/36
o hat
v 1.125000 1.125000 -1.125000
v 1.125000 -1.125000 -1.125000
v 1.125000 1.125000 1.125000
v 1.125000 -1.125000 1.125000
v -1.125000 1.125000 -1.125000
v -1.125000 -1.125000 -1.125000
v -1.125000 1.125000 1.125000
v -1.125000 -1.125000 1.125000
vn -0.0000 1.0000 -0.0000
vn -0.0000 -0.0000 1.0000
vn -1.0000 -0.0000 -0.0000
vn -0.0000 -1.0000 -0.0000
vn 1.0000 -0.0000 -0.0000
vn -0.0000 -0.0000 -1.0000
vt 0.750000 1.000000
vt 0.625000 1.000000
vt 0.625000 0.750000
vt 0.750000 0.750000
vt 0.750000 0.500000
vt 0.625000 0.500000
vt 0.500000 0.750000
vt 0.500000 0.500000
vt 0.875000 1.000000
vt 0.875000 0.750000
vt 0.875000 0.500000
vt 1.000000 0.500000
vt 1.000000 0.750000
s 0
usemtl Material.002
f 49/92/37 53/93/37 55/94/37 51/95/37
f 52/96/38 51/95/38 55/94/38 56/97/38
f 56/97/39 55/94/39 53/98/39 54/99/39
f 54/100/40 50/92/40 52/95/40 56/101/40
f 50/102/41 49/101/41 51/95/41 52/96/41
f 54/103/42 53/104/42 49/101/42 50/102/42
