# Blender 3.6.7
# www.blender.org
mtllib slim.mtl
o SLIM_Larm
v 1.750000 -1.000000 -0.500000
v 1.750000 -4.000000 -0.500000
v 1.750000 -1.000000 0.500000
v 1.750000 -4.000000 0.500000
v 1.000000 -1.000000 -0.500000
v 1.000000 -4.000000 -0.500000
v 1.000000 -1.000000 0.500000
v 1.000000 -4.000000 0.500000
vn -0.0000 1.0000 -0.0000
vn -0.0000 -0.0000 1.0000
vn -1.0000 -0.0000 -0.0000
vn -0.0000 -1.0000 -0.0000
vn 1.0000 -0.0000 -0.0000
vn -0.0000 -0.0000 -1.0000
vt 0.609375 0.250000
vt 0.562500 0.250000
vt 0.562500 0.187500
vt 0.609375 0.187500
vt 0.609375 0.000000
vt 0.562500 0.000000
vt 0.500000 0.187500
vt 0.500000 0.000000
vt 0.656250 0.250000
vt 0.656250 0.187500
vt 0.671875 0.000000
vt 0.671875 0.187500
vt 0.718750 0.000000
vt 0.718750 0.187500
s 0
usemtl Material.002
f 1/1/1 5/2/1 7/3/1 3/4/1
f 4/5/2 3/4/2 7/3/2 8/6/2
f 8/6/3 7/3/3 5/7/3 6/8/3
f 6/9/4 2/1/4 4/4/4 8/10/4
f 2/11/5 1/12/5 3/4/5 4/5/5
f 6/13/6 5/14/6 1/12/6 2/11/6
o SLIM_Lsleeve
v 1.814750 -0.931250 -0.564750
v 1.814750 -4.068748 -0.564750
v 1.814750 -0.931250 0.564750
v 1.814750 -4.068748 0.564750
v 0.936250 -0.931250 -0.564750
v 0.936250 -4.068748 -0.564750
v 0.936250 -0.931250 0.564750
v 0.936250 -4.068748 0.564750
vn -0.0000 1.0000 -0.0000
vn -0.0000 -0.0000 1.0000
vn -1.0000 -0.0000 -0.0000
vn -0.0000 -1.0000 -0.0000
vn 1.0000 -0.0000 -0.0000
vn -0.0000 -0.0000 -1.0000
vt 0.859375 0.250000
vt 0.812500 0.250000
vt 0.812500 0.187500
vt 0.859375 0.187500
vt 0.859375 0.000000
vt 0.812500 0.000000
vt 0.750000 0.187500
vt 0.750000 0.000000
vt 0.906250 0.250000
vt 0.906250 0.187500
vt 0.921875 0.000000
vt 0.921875 0.187500
vt 0.968750 0.000000
vt 0.968750 0.187500
s 0
usemtl Material.002
f 9/15/7 13/16/7 15/17/7 11/18/7
f 12/19/8 11/18/8 15/17/8 16/20/8
f 16/20/9 15/17/9 13/21/9 14/22/9
f 14/23/10 10/15/10 12/18/10 16/24/10
f 10/25/11 9/26/11 11/18/11 12/19/11
f 14/27/12 13/28/12 9/26/12 10/25/12
o SLIM_Rarm
v -1.000000 -1.000000 -0.500000
v -1.000000 -4.000000 -0.500000
v -1.000000 -1.000000 0.500000
v -1.000000 -4.000000 0.500000
v -1.750000 -1.000000 -0.500000
v -1.750000 -4.000000 -0.500000
v -1.750000 -1.000000 0.500000
v -1.750000 -4.000000 0.500000
vn -0.0000 1.0000 -0.0000
vn -0.0000 -0.0000 1.0000
vn -1.0000 -0.0000 -0.0000
vn -0.0000 -1.0000 -0.0000
vn 1.0000 -0.0000 -0.0000
vn -0.0000 -0.0000 -1.0000
vt 0.734375 0.750000
vt 0.687500 0.750000
vt 0.687500 0.687500
vt 0.734375 0.687500
vt 0.734375 0.500000
vt 0.687500 0.500000
vt 0.625000 0.687500
vt 0.625000 0.500000
vt 0.781250 0.750000
vt 0.781250 0.687500
vt 0.796875 0.500000
vt 0.796875 0.687500
vt 0.843750 0.500000
vt 0.843750 0.687500
s 0
usemtl Material.002
f 17/29/13 21/30/13 23/31/13 19/32/13
f 20/33/14 19/32/14 23/31/14 24/34/14
f 24/34/15 23/31/15 21/35/15 22/36/15
f 22/37/16 18/29/16 20/32/16 24/38/16
f 18/39/17 17/40/17 19/32/17 20/33/17
f 22/41/18 21/42/18 17/40/18 18/39/18
o SLIM_Rsleeve
v -0.935250 -0.931250 -0.564750
v -0.935250 -4.068748 -0.564750
v -0.935250 -0.931250 0.564750
v -0.935250 -4.068748 0.564750
v -1.813750 -0.931250 -0.564750
v -1.813750 -4.068748 -0.564750
v -1.813750 -0.931250 0.564750
v -1.813750 -4.068748 0.564750
vn -0.0000 1.0000 -0.0000
vn -0.0000 -0.0000 1.0000
vn -1.0000 -0.0000 -0.0000
vn -0.0000 -1.0000 -0.0000
vn 1.0000 -0.0000 -0.0000
vn -0.0000 -0.0000 -1.0000
vt 0.734375 0.500000
vt 0.687500 0.500000
vt 0.687500 0.437500
vt 0.734375 0.437500
vt 0.734375 0.250000
vt 0.687500 0.250000
vt 0.625000 0.437500
vt 0.625000 0.250000
vt 0.781250 0.500000
vt 0.781250 0.437500
vt 0.796875 0.250000
vt 0.796875 0.437500
vt 0.843750 0.250000
vt 0.843750 0.437500
s 0
usemtl Material.002
f 25/43/19 29/44/19 31/45/19 27/46/19
f 28/47/20 27/46/20 31/45/20 32/48/20
f 32/48/21 31/45/21 29/49/21 30/50/21
f 30/51/22 26/43/22 28/46/22 32/52/22
f 26/53/23 25/54/23 27/46/23 28/47/23
f 30/55/24 29/56/24 25/54/24 26/53/24
o head
v 1.000000 1.000000 -1.000000
v 1.000000 -1.000000 -1.000000
v 1.000000 1.000000 1.000000
v 1.000000 -1.000000 1.000000
v -1.000000 1.000000 -1.000000
v -1.000000 -1.000000 -1.000000
v -1.000000 1.000000 1.000000
v -1.000000 -1.000000 1.000000
vn -0.0000 1.0000 -0.0000
vn -0.0000 -0.0000 1.0000
vn -1.0000 -0.0000 -0.0000
vn -0.0000 -1.0000 -0.0000
vn 1.0000 -0.0000 -0.0000
vn -0.0000 -0.0000 -1.0000
vt 0.250000 1.000000
vt 0.125000 1.000000
vt 0.125000 0.875000
vt 0.250000 0.875000
vt 0.250000 0.750000
vt 0.125000 0.875000
vt 0.125000 0.750000
vt 0.125000 0.750000
vt 0.000000 0.875000
vt -0.000000 0.750000
vt 0.375000 1.000000
vt 0.250000 1.000000
vt 0.375000 0.875000
vt 0.375000 0.750000
vt 0.500000 0.750000
vt 0.500000 0.875000
s 0
usemtl Material.002
f 33/57/25 37/58/25 39/59/25 35/60/25
f 36/61/26 35/60/26 39/62/26 40/63/26
f 40/64/27 39/62/27 37/65/27 38/66/27
f 38/67/28 34/68/28 36/60/28 40/69/28
f 34/70/29 33/69/29 35/60/29 36/61/29
f 38/71/30 37/72/30 33/69/30 34/70/30
o Lleg
v 1.000000 -4.000000 -0.500000
v 1.000000 -7.000000 -0.500000
v 1.000000 -4.000000 0.500000
v 1.000000 -7.000000 0.500000
v 0.000000 -4.000000 -0.500000
v 0.000000 -7.000000 -0.500000
v 0.000000 -4.000000 0.500000
v 0.000000 -7.000000 0.500000
vn -0.0000 1.0000 -0.0000
vn -0.0000 -0.0000 1.0000
vn -1.0000 -0.0000 -0.0000
vn -0.0000 -1.0000 -0.0000
vn 1.0000 -0.0000 -0.0000
vn -0.0000 -0.0000 -1.0000
vt 0.375000 0.250000
vt 0.312500 0.250000
vt 0.312500 0.187500
vt 0.375000 0.187500
vt 0.375000 0.000000
vt 0.312500 0.000000
vt 0.250000 0.187500
vt 0.250000 0.000000
vt 0.437500 0.250000
vt 0.437500 0.187500
vt 0.437500 0.000000
vt 0.500000 0.000000
vt 0.500000 0.187500
s 0
usemtl Material.002
f 41/73/31 45/74/31 47/75/31 43/76/31
f 44/77/32 43/76/32 47/75/32 48/78/32
f 48/78/33 47/75/33 45/79/33 46/80/33
f 46/81/34 42/73/34 44/76/34 48/82/34
f 42/83/35 41/82/35 43/76/35 44/77/35
f 46/84/36 45/85/36 41/82/36 42/83/36
o Rleg
v 0.000000 -4.000000 -0.500000
v 0.000000 -7.000000 -0.500000
v 0.000000 -4.000000 0.500000
v 0.000000 -7.000000 0.500000
v -1.000000 -4.000000 -0.500000
v -1.000000 -7.000000 -0.500000
v -1.000000 -4.000000 0.500000
v -1.000000 -7.000000 0.500000
vn -0.0000 1.0000 -0.0000
vn -0.0000 -0.0000 1.0000
vn -1.0000 -0.0000 -0.0000
vn -0.0000 -1.0000 -0.0000
vn 1.0000 -0.0000 -0.0000
vn -0.0000 -0.0000 -1.0000
vt 0.125000 0.750000
vt 0.062500 0.750000
vt 0.062500 0.687500
vt 0.125000 0.687500
vt 0.125000 0.500000
vt 0.062500 0.500000
vt 0.000000 0.687500
vt 0.000000 0.500000
vt 0.187500 0.750000
vt 0.187500 0.687500
vt 0.187500 0.500000
vt 0.250000 0.500000
vt 0.250000 0.687500
s 0
usemtl Material.002
f 49/86/37 53/87/37 55/88/37 51/89/37
f 52/90/38 51/89/38 55/88/38 56/91/38
f 56/91/39 55/88/39 53/92/39 54/93/39
f 54/94/40 50/86/40 52/89/40 56/95/40
f 50/96/41 49/95/41 51/89/41 52/90/41
f 54/97/42 53/98/42 49/95/42 50/96/42
o torso
v 1.000000 -1.000000 -0.500000
v 1.000000 -4.000000 -0.500000
v 1.000000 -1.000000 0.500000
v 1.000000 -4.000000 0.500000
v -1.000000 -1.000000 -0.500000
v -1.000000 -4.000000 -0.500000
v -1.000000 -1.000000 0.500000
v -1.000000 -4.000000 0.500000
vn -0.0000 1.0000 -0.0000
vn -0.0000 -0.0000 1.0000
vn -1.0000 -0.0000 -0.0000
vn -0.0000 -1.0000 -0.0000
vn 1.0000 -0.0000 -0.0000
vn -0.0000 -0.0000 -1.0000
vt 0.437468 0.749973
vt 0.312489 0.749973
vt 0.312489 0.687484
vt 0.437468 0.687484
vt 0.437511 0.499951
vt 0.437511 0.687419
vt 0.312532 0.687419
vt 0.312532 0.499951
vt 0.312516 0.500081
vt 0.312516 0.687549
vt 0.250027 0.687549
vt 0.250027 0.500081
vt 0.562554 0.749973
vt 0.437576 0.749973
vt 0.437576 0.687484
vt 0.562554 0.687484
vt 0.500016 0.499995
vt 0.500016 0.687462
vt 0.437527 0.687462
vt 0.437527 0.499995
vt 0.625011 0.500038
vt 0.625011 0.687505
vt 0.500033 0.687505
vt 0.500033 0.500038
s 0
usemtl Material.002
f 57/99/43 61/100/43 63/101/43 59/102/43
f 60/103/44 59/104/44 63/105/44 64/106/44
f 64/107/45 63/108/45 61/109/45 62/110/45
f 62/111/46 58/112/46 60/113/46 64/114/46
f 58/115/47 57/116/47 59/117/47 60/118/47
f 62/119/48 61/120/48 57/121/48 58/122/48
o hat
v 1.125000 1.125000 -1.125000
v 1.125000 -1.125000 -1.125000
v 1.125000 1.125000 1.125000
v 1.125000 -1.125000 1.125000
v -1.125000 1.125000 -1.125000
v -1.125000 -1.125000 -1.125000
v -1.125000 1.125000 1.125000
v -1.125000 -1.125000 1.125000
vn -0.0000 1.0000 -0.0000
vn -0.0000 -0.0000 1.0000
vn -1.0000 -0.0000 -0.0000
vn -0.0000 -1.0000 -0.0000
vn 1.0000 -0.0000 -0.0000
vn -0.0000 -0.0000 -1.0000
vt 0.750000 1.000000
vt 0.625000 1.000000
vt 0.625000 0.875000
vt 0.750000 0.875000
vt 0.750000 0.750000
vt 0.625000 0.750000
vt 0.500000 0.875000
vt 0.500000 0.750000
vt 0.875000 1.000000
vt 0.875000 0.875000
vt 0.875000 0.750000
vt 1.000000 0.750000
vt 1.000000 0.875000
s 0
usemtl Material.002
f 65/123/49 69/124/49 71/125/49 67/126/49
f 68/127/50 67/126/50 71/125/50 72/128/50
f 72/128/51 71/125/51 69/129/51 70/130/51
f 70/131/52 66/123/52 68/126/52 72/132/52
f 66/133/53 65/132/53 67/126/53 68/127/53
f 70/134/54 69/135/54 65/132/54 66/133/54
o jacket
v 1.063563 -0.935937 -0.563063
v 1.063563 -4.064063 -0.563063
v 1.063563 -0.935937 0.563063
v 1.063563 -4.064063 0.563063
v -1.063563 -0.935937 -0.563063
v -1.063563 -4.064063 -0.563063
v -1.063563 -0.935937 0.563063
v -1.063563 -4.064063 0.563063
vn -0.0000 1.0000 -0.0000
vn -0.0000 -0.0000 1.0000
vn -1.0000 -0.0000 -0.0000
vn -0.0000 -1.0000 -0.0000
vn 1.0000 -0.0000 -0.0000
vn -0.0000 -0.0000 -1.0000
vt 0.437468 0.499973
vt 0.312489 0.499973
vt 0.312489 0.437484
vt 0.437468 0.437484
vt 0.437511 0.249951
vt 0.437511 0.437419
vt 0.312532 0.437419
vt 0.312532 0.249951
vt 0.312516 0.250081
vt 0.312516 0.437549
vt 0.250027 0.437549
vt 0.250027 0.250081
vt 0.562554 0.499973
vt 0.437576 0.499973
vt 0.437576 0.437484
vt 0.562554 0.437484
vt 0.500016 0.249995
vt 0.500016 0.437462
vt 0.437527 0.437462
vt 0.437527 0.249995
vt 0.625011 0.250038
vt 0.625011 0.437505
vt 0.500033 0.437505
vt 0.500033 0.250038
s 0
usemtl Material.002
f 73/136/55 77/137/55 79/138/55 75/139/55
f 76/140/56 75/141/56 79/142/56 80/143/56
f 80/144/57 79/145/57 77/146/57 78/147/57
f 78/148/58 74/149/58 76/150/58 80/151/58
f 74/152/59 73/153/59 75/154/59 76/155/59
f 78/156/60 77/157/60 73/158/60 74/159/60
o Rpants
v 0.064189 -3.933809 -0.564189
v 0.064189 -7.068192 -0.564189
v 0.064189 -3.933809 0.564189
v 0.064189 -7.068192 0.564189
v -1.064189 -3.933809 -0.564189
v -1.064189 -7.068192 -0.564189
v -1.064189 -3.933809 0.564189
v -1.064189 -7.068192 0.564189
vn -0.0000 1.0000 -0.0000
vn -0.0000 -0.0000 1.0000
vn -1.0000 -0.0000 -0.0000
vn -0.0000 -1.0000 -0.0000
vn 1.0000 -0.0000 -0.0000
vn -0.0000 -0.0000 -1.0000
vt 0.125000 0.500000
vt 0.062500 0.500000
vt 0.062500 0.437500
vt 0.125000 0.437500
vt 0.125000 0.250000
vt 0.062500 0.250000
vt 0.000000 0.437500
vt 0.000000 0.250000
vt 0.187500 0.500000
vt 0.187500 0.437500
vt 0.187500 0.250000
vt 0.250000 0.250000
vt 0.250000 0.437500
s 0
usemtl Material.002
f 81/160/61 85/161/61 87/162/61 83/163/61
f 84/164/62 83/163/62 87/162/62 88/165/62
f 88/165/63 87/162/63 85/166/63 86/167/63
f 86/168/64 82/160/64 84/163/64 88/169/64
f 82/170/65 81/169/65 83/163/65 84/164/65
f 86/171/66 85/172/66 81/169/66 82/170/66
o Lpants
v 1.064752 -3.932246 -0.564752
v 1.064752 -7.069755 -0.564752
v 1.064752 -3.932246 0.564752
v 1.064752 -7.069755 0.564752
v -0.064752 -3.932246 -0.564752
v -0.064752 -7.069755 -0.564752
v -0.064752 -3.932246 0.564752
v -0.064752 -7.069755 0.564752
vn -0.0000 1.0000 -0.0000
vn -0.0000 -0.0000 1.0000
vn -1.0000 -0.0000 -0.0000
vn -0.0000 -1.0000 -0.0000
vn 1.0000 -0.0000 -0.0000
vn -0.0000 -0.0000 -1.0000
vt 0.125000 0.250000
vt 0.062500 0.250000
vt 0.062500 0.187500
vt 0.125000 0.187500
vt 0.125000 0.000000
vt 0.062500 0.000000
vt 0.000000 0.187500
vt 0.000000 0.000000
vt 0.187500 0.250000
vt 0.187500 0.187500
vt 0.187500 0.000000
vt 0.250000 0.000000
vt 0.250000 0.187500
s 0
usemtl Material.002
f 89/173/67 93/174/67 95/175/67 91/176/67
f 92/177/68 91/176/68 95/175/68 96/178/68
f 96/178/69 95/175/69 93/179/69 94/180/69
f 94/181/70 90/173/70 92/176/70 96/182/70
f 90/183/71 89/182/71 91/176/71 92/177/71
f 94/184/72 93/185/72 89/182/72 90/183/72
